<?xml version="1.0" encoding="UTF-8"?>
<svg version="1.1" xmlns="http://www.w3.org/2000/svg" width="512" height="512">
<path d="M0 0 C168.96 0 337.92 0 512 0 C512 168.96 512 337.92 512 512 C343.04 512 174.08 512 0 512 C0 343.04 0 174.08 0 0 Z " fill="#44A3AB" transform="translate(0,0)"/>
<path d="M0 0 C1.41943359 1.85400391 1.41943359 1.85400391 2.8984375 4.4765625 C3.45426514 5.44746826 4.01009277 6.41837402 4.58276367 7.41870117 C5.17420166 8.47677979 5.76563965 9.5348584 6.375 10.625 C7.62816622 12.82203685 8.88209055 15.01864144 10.13671875 17.21484375 C10.77528809 18.34003418 11.41385742 19.46522461 12.07177734 20.62451172 C15.05422634 25.84549676 18.11883882 31.01687177 21.1875 36.1875 C21.72745605 37.10031738 22.26741211 38.01313477 22.82373047 38.95361328 C23.3292041 39.80810059 23.83467773 40.66258789 24.35546875 41.54296875 C25.04842041 42.72318604 25.04842041 42.72318604 25.75537109 43.92724609 C26.76205004 45.6037279 27.83443106 47.24064497 28.92578125 48.86328125 C30 51 30 51 29.80224609 52.96704102 C28.7648229 55.59595853 27.65004071 56.22681005 25.23828125 57.6640625 C24.45573975 58.14133789 23.67319824 58.61861328 22.86694336 59.11035156 C22.02397705 59.61018555 21.18101074 60.11001953 20.3125 60.625 C18.56835939 61.69212683 16.82618539 62.76247422 15.0859375 63.8359375 C14.22194336 64.36799805 13.35794922 64.90005859 12.46777344 65.44824219 C-1.44597353 74.19732961 -14.13201015 84.66452369 -26 96 C-26.56412598 96.53713623 -27.12825195 97.07427246 -27.70947266 97.62768555 C-31.89481378 101.70216051 -35.53124311 105.99234523 -39 110.6875 C-39.77645874 111.73623291 -39.77645874 111.73623291 -40.56860352 112.80615234 C-48.02078652 123.00436742 -53.152958 133.01566639 -57 145 C-56.33693848 144.9685791 -55.67387695 144.9371582 -54.99072266 144.90478516 C-36.15733602 144.13375171 -19.62978443 145.56487566 -4 157 C-3.11183594 157.63421875 -2.22367188 158.2684375 -1.30859375 158.921875 C9.31187185 167.01647187 17.49054831 177.35153795 22 190 C22.31710937 190.82757813 22.63421875 191.65515625 22.9609375 192.5078125 C28.94040444 211.32393325 25.59290418 233.62738937 17 251 C7.34018831 268.58085727 -6.58566927 279.51842395 -25 287 C-25.76699219 287.31710937 -26.53398437 287.63421875 -27.32421875 287.9609375 C-44.95580538 294.5442656 -68.84734955 294.32679614 -87 290 C-88.65902344 289.63261719 -88.65902344 289.63261719 -90.3515625 289.2578125 C-105.57310768 285.44398854 -117.15269389 278.13409336 -128 267 C-128.88751953 266.12601562 -128.88751953 266.12601562 -129.79296875 265.234375 C-148.80631225 245.04862694 -150.81767112 216.73159435 -150.28125 190.546875 C-148.93237845 145.56200865 -128.0699776 103.2136071 -97.546875 70.734375 C-95.49877443 68.53549402 -93.5492574 66.30529847 -91.625 64 C-69.46662936 38.60149025 -38.76038613 19.07001739 -9.375 3.1875 C-8.7655957 2.85580811 -8.15619141 2.52411621 -7.52832031 2.18237305 C-4.7882659 0.74238196 -3.14800057 0 0 0 Z " fill="#FEFEFE" transform="translate(430,110)"/>
<path d="M0 0 C3.13447731 1.41398846 4.05414548 3.6232546 5.7668457 6.56591797 C6.10819046 7.14411789 6.44953522 7.72231781 6.80122375 8.31803894 C7.52776128 9.55217685 8.24859452 10.78968771 8.96417236 12.0302124 C10.03709112 13.88981473 11.1246256 15.73997536 12.2175293 17.58789062 C14.40819979 21.2976649 16.57922596 25.01869457 18.74731445 28.74169922 C19.85135487 30.63673016 20.95588136 32.53146838 22.06204224 34.42526245 C22.76757914 35.63361516 23.47162043 36.84284257 24.17404175 38.05300903 C26.0660059 41.29733695 28.05125321 44.44697608 30.1418457 47.56591797 C32.05981445 50.92919922 32.05981445 50.92919922 31.88745117 53.00024414 C30.86409772 55.38535198 29.999087 55.93089682 27.7355957 57.15576172 C27.04377197 57.5423999 26.35194824 57.92903809 25.63916016 58.32739258 C24.89110107 58.73223877 24.14304199 59.13708496 23.37231445 59.55419922 C15.17764313 64.18320426 7.56934807 69.26680347 0.05981445 74.92919922 C-0.50801758 75.35281738 -1.07584961 75.77643555 -1.66088867 76.21289062 C-23.94674504 92.91472041 -49.51573311 116.16316357 -54.94018555 144.92919922 C-54.27712402 144.89777832 -53.6140625 144.86635742 -52.9309082 144.83398438 C-30.25504737 143.90564113 -11.80456205 147.31662817 5.38012695 162.85888672 C16.89922571 173.73997244 26.11172757 188.01386951 27.22094727 204.29418945 C27.60520196 226.65468513 24.58960393 246.10796763 10.05981445 263.92919922 C9.61379883 264.54923828 9.1677832 265.16927734 8.70825195 265.80810547 C-2.29334004 280.35315501 -22.84823331 288.6283432 -40.20288086 291.46191406 C-57.2995786 293.5995597 -76.5799307 293.52370706 -92.94018555 287.92919922 C-94.07584961 287.57857422 -95.21151367 287.22794922 -96.3815918 286.86669922 C-114.91797648 280.56389073 -130.12932392 266.24846441 -138.97485352 248.96044922 C-146.20656399 233.74349648 -148.2885118 218.68647095 -148.20092773 201.98486328 C-148.19023333 199.56501027 -148.20086644 197.14590444 -148.21362305 194.72607422 C-148.24950178 158.23181415 -135.5106314 122.32830109 -113.94018555 92.92919922 C-113.55507812 92.40422852 -113.1699707 91.87925781 -112.77319336 91.33837891 C-107.84343497 84.66502635 -102.6463293 78.30156635 -97.0222168 72.19482422 C-95.11578115 70.12027886 -93.27252944 68.00653991 -91.44018555 65.86669922 C-85.10855555 58.63469982 -78.29979333 52.22423712 -70.79174805 46.22607422 C-68.92836263 44.72515556 -67.08827912 43.19471098 -65.27612305 41.63232422 C-50.79315048 29.14840984 -34.7356347 18.84140792 -18.22631836 9.26464844 C-16.04149001 7.98837643 -13.87586901 6.68468043 -11.71362305 5.37060547 C-10.45613492 4.6187606 -9.19834403 3.86742176 -7.94018555 3.11669922 C-6.86768555 2.47087891 -5.79518555 1.82505859 -4.69018555 1.15966797 C-1.94018555 -0.07080078 -1.94018555 -0.07080078 0 0 Z " fill="#FEFEFE" transform="translate(199.940185546875,110.07080078125)"/>
</svg>
